<svg width="22" height="25" viewBox="0 0 22 25" fill="none" xmlns="http://www.w3.org/2000/svg">
<path d="M14.3847 18.9655C15.7872 18.9655 16.9231 17.8082 16.9231 16.3793C16.9231 14.9504 15.7872 13.7931 14.3847 13.7931C12.9822 13.7931 11.8462 14.9504 11.8462 16.3793C11.8462 17.8082 12.9822 18.9655 14.3847 18.9655Z" fill="#717075"/>
<path fill-rule="evenodd" clip-rule="evenodd" d="M3.66667 0C1.64144 0 0 1.86528 0 4.16667V20.8333C0 23.1347 1.64144 25 3.66667 25H18.3333C20.3586 25 22 23.1347 22 20.8333V4.16667C22 1.86528 20.3586 0 18.3333 0H3.66667ZM2.44444 20.8333V6.94444H19.5556V20.8333C19.5556 21.6 19.008 22.2222 18.3333 22.2222H3.66667C2.992 22.2222 2.44444 21.6 2.44444 20.8333Z" fill="#717075"/>
</svg>
