<svg width="79" height="79" viewBox="0 0 79 79" fill="none" xmlns="http://www.w3.org/2000/svg">
<path d="M35.1113 20.2204C35.1113 18.0573 37.3569 16.3018 40.1272 16.3018C42.8975 16.3018 45.1431 18.0573 45.1431 20.2204V43.7323C45.1431 45.8993 42.8975 47.651 40.1272 47.651C37.3569 47.651 35.1113 45.8993 35.1113 43.7323V20.2204Z" fill="#774F39"/>
<path d="M40.1272 52.6665C37.3569 52.6665 35.1113 54.9136 35.1113 57.6824C35.1113 60.4511 37.3569 62.6982 40.1272 62.6982C42.8975 62.6982 45.1431 60.4511 45.1431 57.6824C45.1431 54.9136 42.8975 52.6665 40.1272 52.6665Z" fill="#774F39"/>
<path fill-rule="evenodd" clip-rule="evenodd" d="M39.5 0C17.6849 0 0 17.6842 0 39.5C0 61.3158 17.6849 79 39.5 79C61.3151 79 79 61.3158 79 39.5C79 17.6842 61.3151 0 39.5 0ZM7.9 39.5C7.9 56.9511 22.0477 71.1 39.5 71.1C56.9523 71.1 71.1 56.9511 71.1 39.5C71.1 22.0489 56.9523 7.9 39.5 7.9C22.0477 7.9 7.9 22.0489 7.9 39.5Z" fill="#774F39"/>
</svg>
