<?xml version="1.0" encoding="utf-8"?>
<!-- Generator: Adobe Illustrator 24.0.0, SVG Export Plug-In . SVG Version: 6.00 Build 0)  -->
<svg version="1.1" xmlns="http://www.w3.org/2000/svg" xmlns:xlink="http://www.w3.org/1999/xlink" x="0px" y="0px"
	 viewBox="0 0 512 512" style="enable-background:new 0 0 512 512;" xml:space="preserve">
<style type="text/css">
	.st0{fill:#EDA753;}
	.st1{fill:#FFDD9C;}
	.st2{fill:#F6CE86;}
	.st3{fill:#FDD690;}
	.st4{fill:#BE4668;}
	.st5{fill:#F491AB;}
	.st6{fill:#DF9A43;}
	.st7{fill:#FCD79D;}
	.st8{fill:#4B515A;}
	.st9{fill:#F3C87C;}
	.st10{fill:#D7E0F2;}
	.st11{fill:#B9C9E7;}
	.st12{fill:#E28087;}
	.st13{fill:#6E65AD;}
</style>
<g id="Layer_1">
	<path class="st0" d="M138.17,60.7c1.14-6.8,5.52-10.52,11.82-12.42c3.75,0,7.5,0,11.25,0c4.94,1.13,10.03,1.42,14.9,2.95
		c12.44,3.89,23.24,10.32,31.91,20.15c-0.77,1.2-2.1,1.38-3.29,1.77c-3.46,1.13-6.76,2.66-10.07,4.16
		c-4.13,1.39-7.59,4.09-11.51,5.89c-0.96,0.44-1.81,1.25-3,0.93c-2.87-2.08-5.36-4.61-8.14-6.8c-9.18-7.25-19.52-12.13-30.81-15.06
		C140.12,61.96,138.86,61.87,138.17,60.7z"/>
	<path class="st1" d="M194.42,76.71c4.34-2.3,8.92-4,13.64-5.34c9.73-3.29,19.72-5.24,29.97-5.92c4.12-0.28,8.23-0.67,12.39-0.59
		c17.79,0.34,34.94,3.71,51.4,10.51c0.91,0.38,1.78,0.87,2.81,0.78c8.73,3.12,16.28,8.28,23.73,13.63c0.88,0.63,1.77,1.26,2.61,1.94
		c6.63,5.72,12.98,11.74,18.22,18.8c3.87,5.21,7.46,10.62,10.15,16.57c0.69,1.53,1.34,3.04,1.53,4.72
		c0.53,3.62,2.28,6.87,3.08,10.44c4.35,19.41,3.59,38.12-7.08,55.6c-0.2,0.32-0.29,0.71-0.45,1.11c1.21,0.94,2.82-0.16,3.89,0.93
		c-0.07,0.07-0.13,0.21-0.2,0.21c-4.77,0-6.58,3.9-9.25,6.82c-7.05,7.72-15.54,13.5-25.07,17.75c-2.24,1-4.4,2.19-6.74,2.98
		c-14,5.17-28.48,7.8-43.36,8.82c-8.3,0.57-16.58,0.62-24.85,0.37c-9.06-0.27-18.1-1.27-27.08-2.62c-1.07-0.16-2.14-0.39-3.1-0.93
		c-8.87-6.09-17.34-12.71-24.79-20.5c-13.76-14.37-23.37-30.94-26.15-50.96c-1.99-14.3-0.23-28.28,3.89-42.02
		c4.31-14.35,10.75-27.72,18.37-40.57C192.62,78.18,193.43,77.38,194.42,76.71z"/>
	<path class="st2" d="M194.42,76.71c-11.06,18.07-20.1,37.02-23.53,58.1c-3.95,24.32,1.45,46.54,16.22,66.44
		c8.78,11.83,19.76,21.26,31.65,29.74c0.63,0.45,1.44,0.7,1.73,1.53c-0.91,0.88-2.01,0.65-3.06,0.46
		c-15.18-2.81-29.79-7.32-43.44-14.65c-1.44-0.77-3.1-1.37-3.88-3.03c-4.35-3.04-8.74-6.01-12.65-9.63
		c-11.71-10.84-18.85-23.96-20.54-40c-1.63-15.44,1.6-29.88,8.3-43.71c0.29-0.61,0.44-1.29,0.66-1.93c1.98-5.36,5.5-9.74,8.93-14.18
		c6.45-8.35,14.41-15.07,23.1-20.95c0.73-0.49,1.44-1.05,2.39-1.07C185.16,81.78,189.36,78.4,194.42,76.71z"/>
	<path class="st3" d="M306.44,260.49c-1.52,1.54-1.36,3.66-1.71,5.53c-2.64,13.81-9.69,25.05-20.26,34.01
		c-3.14,2.66-5.6,4.97-4.8,9.36c0.08,0.42-0.27,0.91-0.42,1.37c-1.53-1.27-0.46-3.17-1.18-4.92c-9.47,6.06-19.84,9.42-30.85,10.94
		c-7.04,0.16-14.09,0.61-21.04-0.98c-1.94-0.42-3.93-0.66-5.71-1.64c-10.51-8.87-15.6-20.41-16.63-33.93
		c2.13-4.77,1.88-9.62,0.49-14.52c1.07-7.51,2.83-14.85,5.52-21.95c0.28-0.73,0.52-1.49,1.14-2.03c1.73-0.95,3.48-0.2,5.19,0.01
		c9.85,1.21,19.63,2.8,29.24,5.32c1.23,0.32,2.51,0.56,3.41,1.59c0.62,1.76-0.94,2.2-1.88,2.85c-3.32,2.27-5.98,5.12-7.98,8.59
		c-5,8.66-3.86,21.61,3.89,28.97c0.9,0.85,2.3,1.75,1.84,3.13c-0.47,1.43-2.12,1.67-3.47,1.89c-4.97,0.79-9.19-0.44-12.2-4.73
		c-0.45-0.65-0.89-1.31-1.52-1.8c-1.2-0.92-2.52-1.11-3.89-0.45c-1.31,0.64-1.69,1.85-1.7,3.21c-0.01,1.35,0.56,2.49,1.32,3.54
		c4.17,5.81,9.91,8.26,16.92,7.68c3.66-0.3,7.27-1.18,10.27-3.42c2.39-1.78,4.87-2.12,7.76-1.79c7.64,0.87,14.19-1.67,19.61-7.03
		c9.92-9.82,9.47-25.99-0.86-35.41c-0.99-0.91-2.69-1.58-1.71-3.5c4.17-2.31,8.87-2.41,13.4-3.19c4.26-0.73,8.61-0.73,12.91-1.23
		c1.53-0.18,3.17-0.37,4.51,0.79C307.26,251.29,306.69,255.89,306.44,260.49z"/>
	<path class="st0" d="M205.06,265.71c1.65,4.99,1.83,9.92-0.59,14.75c-1.52,4.33-5.19,6.04-9.16,7.02
		c-2.92,0.72-5.97,1.28-9.05,0.48c-1.15-0.3-2.35-0.1-3.53-0.02c-3.49-0.96-6.83-2.34-10.15-3.78
		c-12.81-6.53-19.64-20.26-16.83-33.79c0.34-1.65,0.87-3.21,1.88-4.59c2.52-6.45,5.33-12.72,10.68-17.44
		c3.64-4.04,8.32-3.77,12.82-2.48c6.94,1.98,10.27,7.19,11.07,14.17c-0.3,3.67-1.26,7.12-3.4,10.2c-0.78,1.12-1.56,2.28-2.01,3.59
		c-0.68,1.98-0.05,3.01,2.01,3.31c1.17,0.17,2.36-0.01,3.53,0.11C198.03,257.84,202.66,260.11,205.06,265.71z"/>
	<path class="st4" d="M191.52,240.04c-1.06-6.71-4.24-11.72-11.14-13.63c-4.3-1.19-8.3-0.21-12.09,1.94
		c-1.28-4.61-0.48-8.93,1.81-13.04c10.02,5.73,20.56,10.23,31.71,13.24c6.15,1.66,12.28,3.43,18.67,3.98
		c4.83,1.47,9.88,1.71,14.84,2.26c10.68,1.18,21.42,1.57,32.17,1.24c17.71-0.55,35.06-3.09,51.76-9.29
		c2.95,3.63,2.84,10.74-0.24,15.08c-0.45,0.64-0.97,1.22-1.53,1.77c-3.47,2.93-7.45,3.95-11.91,3.16
		c-10.33,0.49-20.64,1.07-30.6,4.23c-3.14,2.02-6.48,3.57-10.14,4.36c-0.98,0.21-1.99,0.2-2.9-0.16c-4.43-1.76-8.8-3.65-12.95-6.01
		c-7.88-2.79-16.1-4.09-24.31-5.39c-4.53-0.72-9.06-1.57-13.67-1.71c-0.38,0.1,0.14,0.13-0.25,0.14
		c-6.35,0.18-12.62-0.53-18.84-1.75C191.76,240.42,191.65,240.19,191.52,240.04z"/>
	<path class="st0" d="M317.06,243.22c4.4-5.01,4.14-10.64,2.2-16.49c11.07-4.36,21.2-10.22,29.63-18.75
		c1.31-1.32,2.72-2.65,3.61-4.24c1.78-3.17,4.35-4.3,7.8-3.85c6.12,1.15,10.13,4.75,11.74,10.7c1.66,6.15-0.25,11.48-5.2,15.26
		c-15.01,11.46-31.12,21.15-48.08,29.44c-0.35,0.17-0.74,0.23-1.12,0.34c-0.55-0.48-0.84-1.14-0.79-1.81
		C317.16,250.29,315.66,246.73,317.06,243.22z"/>
	<path class="st5" d="M180.29,83.84c-4.19,3.4-8.71,6.36-12.81,9.9c-8.22,7.09-14.97,15.33-20.37,24.71
		c-0.34,0.6-0.58,1.26-1.24,1.6c-8.36-12.84-11.99-26.99-11.13-42.2c0.33-5.81,1.1-11.67,3.44-17.14c12.53,2.94,24.11,7.93,34.24,16
		C175.19,78.9,177.94,81.15,180.29,83.84z"/>
	<path class="st5" d="M360.86,131.81c-3-5.61-5.59-11.42-9.24-16.7c-5.47-7.91-11.86-14.91-19.21-21.08
		c-0.67-0.56-1.22-1.27-1.82-1.91c-0.19-1.48,0.97-2.03,1.89-2.72c11.83-8.8,25.05-14.19,39.67-16.15c0.97-0.13,1.95-0.35,2.82,0.34
		c1,2,1.02,4.23,1.19,6.33C377.72,99.16,373.12,116.63,360.86,131.81z"/>
	<path class="st4" d="M157.62,245.78c-3.15,10.51-2.04,20.37,4.74,29.23c2.83,3.7,6.37,6.61,10.72,8.44
		c-0.8,2.66-3.44,1.94-5.2,2.86c-6.81,2-13.72,3.63-20.18,6.72c-6.29,3-11.99,6.8-16.99,11.65c-1.07,1.03-2.33,1.83-3.33,2.93
		c-1.19,1.56-2.57,2.96-3.94,4.35c-2.55,2.58-3.95,5.57-3.22,9.29c0.15,0.77,0.25,1.56-0.4,2.2c-10.13-4.07-10.79-9.56-6.19-18.32
		c9.13-17.39,20.41-33.2,33.32-47.92C150.39,253.3,153.72,249.28,157.62,245.78z"/>
	<path class="st0" d="M374.98,73.59c-15.64,1.81-29.89,7.12-42.45,16.74c-0.7,0.53-1.3,1.19-1.94,1.79
		c-5.78-3.89-11.41-7.98-17.51-11.41c-2.8-1.58-6.11-2.18-8.46-4.56c14.53-12.39,31.4-17.93,50.4-17.14
		c2.26,0.09,4.51,0.4,6.75,0.71C369.59,60.79,373.7,65.14,374.98,73.59z"/>
	<path class="st0" d="M210.23,332.65c-7.37,6.28-15.08,12.08-23.68,16.61c-9.69,5.11-20.49-0.29-22.12-11.04
		c-0.29-1.91,0.42-3.71,0.34-5.58c-0.34-2.07,0.93-3.55,2.04-4.98c1.5-1.94,3.31-3.65,5.5-4.83c5.21-2.8,10.01-6.18,14.6-9.91
		c0.83-0.68,1.71-1.34,2.85-1.43c3.25,0.79,5.58,3.22,8.39,4.79c5.08,2.85,10.35,5.19,15.88,7c1.19,0.39,2.52,0.61,3.16,1.94
		C216.03,328.78,213.14,330.73,210.23,332.65z"/>
	<path class="st4" d="M189.55,311.8c-5.33,4.32-10.81,8.43-16.9,11.66c-3.79,2.01-6.31,5.2-7.87,9.18
		c-10.96-0.75-21.8-2.26-32.48-4.87c-0.25-0.69,0.18-1.13,0.62-1.5c2.82-2.31,5.2-5.03,7.46-7.87c9-9.15,20.6-13,32.61-16
		c1.72-0.43,3.37-1.07,5.11-1.42c4.21-0.93,7.83-3.45,12.01-4.49c3.42,1.05,5.54,3.67,7.62,6.34
		C195.76,306.51,193.34,309.78,189.55,311.8z"/>
	<path class="st0" d="M277.81,319c-2.75,11.95-9.18,21.61-18.56,29.31c-5.24,4.3-12.17,4.32-17.54,0.52
		c-5.23-3.7-7.37-10.14-5.47-16.43c0.17-0.56,0.33-1.13,0.49-1.7c-0.02-1.81,0.94-2.89,2.58-3.47c9.11,0,18-1.37,26.66-4.22
		c2.71-0.89,5.34-1.97,7.93-3.17C275.12,319.27,276.34,318.5,277.81,319z"/>
	<path class="st6" d="M277.81,319c-7.88,3.76-16.03,6.61-24.7,8.02c-4.76,0.77-9.52,0.93-14.31,0.85c-0.19-0.52-0.06-1.02,0.3-1.35
		c3.39-3.14,5.89-7.01,8.79-10.55c6.03-1.26,12.12-2.25,17.85-4.65c4.52-1.9,8.86-4.15,13.51-7.08c0,2.49,0,4.51,0,6.53
		C279.1,313.56,278.69,316.32,277.81,319z"/>
	<path class="st4" d="M247.89,315.96c-1.35,3.76-3.99,6.59-6.78,9.31c-0.83,0.81-1.54,1.72-2.31,2.59
		c-0.69,0.95-1.39,1.89-2.08,2.83c-8.83,0.66-17.6,2.14-26.5,1.95c2.23-2.4,4.45-4.79,6.68-7.19c2.39-3.99,5.31-7.53,8.84-10.57
		C233.07,316.46,240.48,316.14,247.89,315.96z"/>
	<path class="st7" d="M140.6,319.12c-2.36,3.27-5.2,6.09-8.3,8.65c-5.27,1.79-9.13-0.52-12.48-4.3c-2.43-7.54,2.64-11.79,7.16-16.28
		c0.37-0.15,0.77-0.24,1.13-0.06C133.61,309.73,138.13,313.37,140.6,319.12z"/>
	<path class="st6" d="M317.06,243.22c0.76,4.11,0.53,8.26,0.58,12.4c-3.59,1.96-7.32,3.58-11.2,4.86c-1.33-1.64-0.47-3.54-0.59-5.31
		c-0.19-2.8-0.19-5.62-0.27-8.43c2.08-1.03,4.42-0.3,6.59-1.02C313.96,245.12,315.52,244.24,317.06,243.22z"/>
	<path class="st5" d="M225.87,142.13c10.01,7.21,8.15,20.69-3.64,26c-3.42,1.54-7.05,2.48-10.88,2.05c0.08-0.75,0.66-1.17,1.13-1.67
		c1.21-1.27,1.63-2.7,0.72-4.28c-1.01-1.77-2.66-2.28-4.55-1.83c-2.96,0.71-5.78,1.88-8.68,2.79c-0.96,0.3-1.92,1.17-3.01,0.28
		c-3.2-3.22-6.03-6.63-6.1-11.5c0.71-1.32,2.01-1.05,3.13-1.07c3.04-0.05,6.09-0.18,9.12,0.38c1.16,0.22,2.35,0.22,3.53,0.09
		c1.87-0.19,3.23-1.03,3.32-3.07c0.1-2.11-1.14-3.39-3.08-3.71c-3-0.49-6.02-0.89-9.08-0.95c-1.33-0.02-2.79,0.29-3.86-0.92
		c5.28-6.54,14.89-9.21,23.83-6.62c0.85,0.25,1.7,0.49,2.54,0.74C221.91,140.38,223.84,141.34,225.87,142.13z"/>
	<path class="st5" d="M317.33,144.18c8.88-2.05,16.85-0.49,23.6,5.95c0.86,0.83,1.55,1.76,2.07,2.82c-0.74,1-1.77,0.62-2.71,0.55
		c-3.34-0.23-6.68-0.14-10.02-0.09c-1.9,0.03-3.6,0.58-3.89,2.8c-0.29,2.31,1.19,3.41,3.17,3.93c2.8,0.74,5.68,0.2,8.51,0.45
		c2.35,0.21,4.92-0.31,6.83,1.71c-0.75,4.85-3.42,8.29-7.69,10.58c-1.29,0.54-2.28-0.3-3.3-0.81c-2.3-1.13-4.62-2.2-7.02-3.09
		c-1.9-0.71-3.64-0.79-5.08,0.96c-1.41,1.72-0.88,3.26,0.32,4.79c0.31,0.39,0.51,0.84,0.48,1.36c-9.33,0.2-18.08-7.05-18.91-16.22
		c-0.53-5.84,2.98-9.9,7.45-13.18C313.35,146.22,315.48,145.53,317.33,144.18z"/>
	<path class="st8" d="M269.8,150.27c-6.29,0.04-11.47-2.39-15.6-7.09c-1.79-2.04-1.74-4.73,0.01-6.37c1.84-1.72,4.19-1.6,6.33,0.33
		c6.23,5.61,9.94,5.81,16.99,0.88c2.31-1.61,4.79-1.43,6.34,0.47c1.64,2.01,1.42,4.25-0.75,6.28
		C279.39,148.28,274.97,150.2,269.8,150.27z"/>
	<path class="st8" d="M196.97,165.48c3.52-1.18,7.02-2.41,10.56-3.51c3.34-1.03,5.41-0.34,6.53,2c1.13,2.34,0.29,4.25-2.71,6.21
		c-6.85,1.53-13.16,4.42-19.33,7.67c-1.21,0.64-2.44,1.48-3.74,1.65c-2.11,0.28-3.8-0.7-4.66-2.79c-0.96-2.32,0-4.03,1.87-5.3
		C189.07,168.98,193.18,167.52,196.97,165.48z"/>
	<path class="st8" d="M193.95,144.74c4.02,0.24,8.04,0.46,12.05,0.74c2.19,0.15,4.08,0.91,4.87,3.17c1.03,2.93-1.09,5.75-4.42,5.66
		c-5.19-0.14-10.37-1.02-15.58-0.33c-2.57-0.31-5.07,0.46-7.62,0.51c-3,0.06-5.04-1.41-5.26-3.92c-0.21-2.36,1.35-4.32,4.24-4.72
		C186.11,145.32,190.04,145.1,193.95,144.74z"/>
	<path class="st8" d="M322.61,176.12c-2.11-1.69-3.43-3.7-1.79-6.34c1.6-2.57,3.99-2.52,6.48-1.4c3.31,1.49,6.6,3.01,9.9,4.51
		c3.46,2.25,6.97,4.43,10.37,6.76c2.77,1.91,3.39,4.31,1.93,6.52c-1.53,2.31-4.17,2.63-6.97,0.68
		C336.3,182.51,329.8,178.67,322.61,176.12z"/>
	<path class="st8" d="M344.89,162.32c-4.65-0.94-9.37-1.03-14.09-1.12c-3.57-0.07-5.31-1.47-5.5-4.09c-0.2-2.74,1.46-4.58,4.45-4.7
		c4.43-0.18,8.85,0.07,13.25,0.55c3.65,0.67,7.32,1.26,10.95,2.05c3.27,0.71,4.7,2.9,4.01,5.73c-0.58,2.37-2.85,3.52-5.88,2.97
		C349.68,163.25,347.29,162.78,344.89,162.32z"/>
	<path class="st8" d="M225.87,142.13c-2.74,0.41-4.6-0.66-5.55-3.27c0.06-2.55,0.06-5.1,0.19-7.65c0.16-3.13,2.03-5.11,4.63-5.06
		c2.6,0.05,4.25,2.06,4.22,5.28c-0.02,1.96-0.2,3.92-0.28,5.88C228.97,139.56,228.04,141.26,225.87,142.13z"/>
	<path class="st8" d="M317.33,144.18c-1.35,2.6-3.44,3.36-6.19,2.53c-1.84-1.31-2.61-3.1-2.4-5.35c0.21-2.25,0.24-4.52,0.57-6.74
		c0.38-2.54,2.11-3.69,4.61-3.53c2.43,0.15,3.84,1.62,3.85,4C317.79,138.12,317.49,141.15,317.33,144.18z"/>
	<path class="st5" d="M248.99,249.17c3.48,0.72,6.66,2.25,9.71,3.98c3.36,1.9,6.59,1.92,10.03,0.23c1.99-0.98,3.95-2.16,6.25-2.4
		c4.38,3.91,8.02,8.24,9.81,14.05c3.76,12.19-3.41,26.58-15.46,30.78c-4.49,1.56-9.03,1.8-13.64,1.16
		c-1.29-0.18-2.09-0.04-3.15,0.73c-8.08,5.87-17.99,6.3-25.43,1.24c-2.33-1.59-4.13-3.66-5.47-6.12c-1.29-2.38-0.77-5.13,1.11-6.36
		c2.12-1.39,4.89-0.89,6.3,1.71c2.93,5.41,10.28,6.76,15.45,3.95c-1.99-2.64-4.61-4.69-6.18-7.68c-6.53-12.4-2.84-26.65,9-34.09
		C247.89,249.98,248.43,249.56,248.99,249.17z"/>
	<path class="st9" d="M197.6,302.94c-2.44-2.05-4.89-4.1-7.33-6.15c-3.48-2.3-6.24-5.22-7.74-9.19c1.31-1.12,2.84-0.64,4.23-0.44
		c5.28,0.78,10.17-0.1,14.46-3.34c1.23-0.93,2.16-2.23,3.23-3.36c1.21,13.05,6.35,24.18,16.05,33.11c-0.55,0.65-1.25,0.48-1.91,0.29
		c-7.17-2.08-13.75-5.36-19.91-9.55C198.2,303.97,197.84,303.49,197.6,302.94z"/>
	<path class="st9" d="M191.52,240.04c6.51,0.54,13.05,0.87,19.49,2.03c-1.78,5.94-3.7,11.84-4.9,17.94c-0.38,1.9-0.71,3.8-1.06,5.7
		c-2.85-3.56-5.95-6.79-10.77-7.46c-1.83-0.26-3.7-0.19-5.56-0.27c-2.83-0.13-3.85-1.65-2.78-4.27c0.36-0.9,0.84-1.77,1.41-2.57
		C189.73,247.8,191.13,244.11,191.52,240.04z"/>
	<path class="st6" d="M197.6,302.94c6.85,4.33,13.9,8.24,21.77,10.42c0.37,0.1,0.76,0.15,1.14,0.22c1.74,0.44,3.49,0.88,5.23,1.32
		c-2.77,3.67-5.55,7.33-8.84,10.57c-2.74-2.01-6.15-2.36-9.2-3.61c-6.47-2.64-12.24-6.46-18.16-10.05
		C192.24,308.85,194.92,305.89,197.6,302.94z"/>
	<path class="st6" d="M182.54,287.6c2.58,3.06,5.16,6.13,7.74,9.19c-3.89,1.79-7.73,3.74-11.9,4.85
		c-4.84-4.01-8.01-9.27-10.87-14.74c-0.19-0.37-0.03-0.76,0.25-1.07c1.57-1.24,3.99-0.59,5.32-2.36
		C176,285.37,179.68,285.55,182.54,287.6z"/>
	<path class="st0" d="M167.76,285.82c2.15,4.8,5.2,9.02,8.6,12.99c0.77,0.89,1.51,1.77,2.02,2.82c-4.82,1.38-9.61,2.88-14.46,4.12
		c-9.03,2.3-16.54,7.17-23.32,13.36c-3.65-4.99-7.79-9.42-13.62-11.93C138.05,295.25,152.11,289.02,167.76,285.82z"/>
</g>
<g id="Layer_2">
	<path class="st10" d="M17.03,304.6c3.48-6.68,9.57-9.2,16.52-9.56c7.69-0.4,15.42-0.11,23.14-0.12
		c25.69-0.02,51.39-0.04,77.08-0.06c53.42,0.03,106.84,0.06,160.25,0.08c33.79,0.01,67.58-0.32,101.37,0.1
		c29.04,0.36,55.32,9.59,78.74,26.85c1.1,0.81,2.07,1.5,2.1,2.97c-1.76,0.09-3.52,0.26-5.28,0.26c-20.42,0.02-40.84,0.05-61.27-0.02
		c-4.53-0.02-8.46,0.82-9.95,5.71c-1.36,4.48,1.23,7.24,4.62,9.61c3.56,2.48,7.11,5,10.48,7.72c5.78,4.65,12.3,6.56,19.68,6.52
		c21.23-0.12,42.45-0.03,63.68-0.07c1.71,0,3.55,0.56,5.12-0.67c0.31,0,0.62,0.01,0.93,0c0,0.97,0,1.93,0,2.9
		c-3.56-0.15-4.32,3.54-6.85,4.98c-18.64,10.6-38.13,19.16-58.78,24.94c-12.35,3.46-24.98,6.22-37.74,6.61
		c-22.05,0.66-44.13,0.11-66.2,0.06c1.78-1.6,5.12-2.22,4.09-5.68c-0.81-2.74-3.26-2.67-5.56-2.67
		c-41.28,0.01-82.56,0.01-123.84-0.01c-3.73,0-6.89,1.09-9.45,3.92c-1.49,1.66-3.19,3.14-4.8,4.7c-4.5-0.04-9.01,0.02-13.51-0.13
		c-5.28-0.17-10.57,0.39-15.86-0.49c-10.08-1.67-19.27-5.68-28.51-9.83c-20.76-9.33-41.66-18.36-62.51-27.51
		c4.57-2.34,9.08-4.8,13.72-6.99c3.81-1.81,6.88-4.14,5.64-8.8c-1.2-4.53-4.98-5.3-9.17-5.28c-13.2,0.08-26.4,0.08-39.6,0
		c-3.45-0.02-6.72,0.47-9.82,1.97c-1.79-0.25-3.32-1.05-4.65-2.24C21.98,326.43,17.53,316.43,17.03,304.6z M179.02,354.59
		c2.25,0,4.51,0.09,6.76-0.02c8.29-0.41,13.55-6.01,13.67-14.45c0.12-8.7-5.15-14.56-13.63-14.95c-3.86-0.18-7.73-0.07-11.59-0.04
		c-9.99,0.07-15.73,5.58-15.6,14.96c0.12,9.18,5.75,14.44,15.56,14.51C175.8,354.62,177.41,354.61,179.02,354.59z M258.64,325.13
		c-2.09,0-4.19-0.06-6.28,0.01c-8.68,0.27-13.97,5.73-14.02,14.43c-0.05,9.13,5.03,14.68,13.91,15.01
		c3.86,0.14,7.72,0.06,11.59,0.02c9.64-0.11,15.15-5.57,15.1-14.91c-0.05-9.01-5.59-14.4-14.99-14.55
		C262.18,325.11,260.41,325.13,258.64,325.13z M338.1,354.6c2.25,0,4.51,0.11,6.76-0.02c8.39-0.48,13.44-5.94,13.48-14.48
		c0.05-8.87-4.95-14.49-13.5-14.92c-4.01-0.2-8.04-0.09-12.07-0.04c-9.4,0.12-14.96,5.51-15.03,14.5
		c-0.07,9.34,5.45,14.83,15.04,14.96C334.56,354.63,336.33,354.61,338.1,354.6z"/>
	<path class="st11" d="M334.69,393.4c22.07,0.04,44.15,0.6,66.2-0.06c12.75-0.38,25.39-3.15,37.74-6.61
		c20.65-5.79,40.14-14.34,58.78-24.94c2.53-1.44,3.29-5.13,6.85-4.98c0,3.54,0,7.09,0,10.63c-3.1,7.64-6.44,15.2-14.3,19.19
		c-17.49,8.88-35.19,17.24-54.25,22.44c-20.91,5.71-42.12,8.02-63.76,7.74c-27.86-0.36-55.73-0.21-83.6-0.27
		C303.6,408.44,319.05,400.73,334.69,393.4z"/>
	<path class="st12" d="M334.69,393.4c-15.64,7.33-31.09,15.04-46.35,23.14c-12.83,6.3-25.67,12.57-38.48,18.9
		c-18.73,9.26-37.44,18.54-56.13,27.87c-9.09,4.54-18.65,6.77-28.82,6.57c-7.4-0.14-14.8-0.1-22.19,0c-3.92,0.05-7-1.19-8.54-4.95
		c-1.48-3.63,0.15-6.4,2.67-9.06c12.03-12.73,23.97-25.55,35.94-38.34c7.5-7.91,15.38-15.46,22.35-23.87
		c1.61-1.56,3.31-3.04,4.8-4.7c2.55-2.84,5.71-3.93,9.45-3.92c41.28,0.02,82.56,0.01,123.84,0.01c2.3,0,4.75-0.07,5.56,2.67
		C339.81,391.18,336.47,391.8,334.69,393.4z"/>
	<path class="st12" d="M133.77,294.86c-25.69,0.02-51.39,0.04-77.08,0.06c-8.21-19.4-16.46-38.78-24.61-58.2
		c-2.29-5.46-0.3-8.49,5.6-8.37c7.86,0.15,15.78-0.87,23.59,0.83c6.75,1.47,12.85,4.28,17.73,9.23
		c18.06,18.37,36.05,36.8,54.05,55.23C133.38,293.96,133.54,294.45,133.77,294.86z"/>
	<path class="st11" d="M195.13,393.67c-6.97,8.41-14.85,15.96-22.35,23.87c-5.01-0.81-10.05-1.48-15.02-2.46
		c-13.7-2.69-25.82-9.58-38.47-14.98c-21.54-9.19-42.91-18.8-64.31-28.3c-2.16-0.96-4.57-1.6-6.22-3.51
		c8.37-4.82,17.14-8.78,26-12.57c20.84,9.15,41.74,18.18,62.51,27.51c9.23,4.15,18.42,8.16,28.51,9.83
		c5.29,0.87,10.57,0.31,15.86,0.49C186.13,393.69,190.63,393.64,195.13,393.67z"/>
	<path class="st13" d="M503.32,353.91c-1.57,1.24-3.41,0.67-5.12,0.67c-21.23,0.04-42.45-0.05-63.68,0.07
		c-7.38,0.04-13.9-1.87-19.68-6.52c-3.38-2.72-6.93-5.23-10.48-7.72c-3.39-2.37-5.98-5.13-4.62-9.61c1.49-4.89,5.42-5.73,9.95-5.71
		c20.42,0.07,40.84,0.04,61.27,0.02c1.76,0,3.52-0.17,5.28-0.26c0.47,0.09,1.07,0.02,1.4,0.28
		C487.82,333.28,499.63,339.98,503.32,353.91z"/>
	<path class="st12" d="M74.76,355.72c-8.86,3.79-17.64,7.76-26,12.57c-9.96,5.78-20.81,6.6-31.99,6.01
		c-2.92-0.15-5.45-0.59-6.85-3.41c-1.43-2.87-0.24-5.18,1.69-7.39c3.26-3.73,6.39-7.57,9.57-11.37c4.78-5.17,9.55-10.35,14.33-15.52
		c3.1-1.51,6.37-2,9.82-1.97c13.2,0.09,26.4,0.09,39.6,0c4.2-0.03,7.97,0.74,9.17,5.28c1.24,4.66-1.83,7-5.64,8.8
		C83.84,350.92,79.32,353.37,74.76,355.72z"/>
	<path class="st11" d="M35.51,336.61c-4.78,5.17-9.55,10.35-14.33,15.52c-7.82-10.59-9.81-22.7-8.86-35.43
		c0.33-4.39,1.07-8.88,4.71-12.11c0.5,11.83,4.95,21.83,13.83,29.77C32.2,335.56,33.73,336.36,35.51,336.61z"/>
	<path class="st13" d="M179.02,354.6c-1.61,0.01-3.22,0.02-4.83,0c-9.8-0.08-15.44-5.33-15.56-14.51
		c-0.12-9.38,5.61-14.89,15.6-14.96c3.86-0.03,7.74-0.14,11.59,0.04c8.48,0.39,13.74,6.26,13.63,14.95
		c-0.12,8.44-5.38,14.04-13.67,14.45C183.53,354.69,181.27,354.59,179.02,354.6z"/>
	<path class="st13" d="M258.64,325.13c1.77,0,3.54-0.03,5.31,0c9.39,0.15,14.94,5.54,14.99,14.55c0.05,9.34-5.46,14.8-15.1,14.91
		c-3.86,0.04-7.73,0.12-11.59-0.02c-8.87-0.33-13.95-5.88-13.91-15.01c0.05-8.7,5.33-14.15,14.02-14.43
		C254.45,325.08,256.54,325.13,258.64,325.13z"/>
	<path class="st13" d="M338.1,354.6c-1.77,0.01-3.54,0.03-5.31,0c-9.6-0.14-15.11-5.62-15.04-14.96c0.06-8.98,5.62-14.37,15.03-14.5
		c4.02-0.05,8.05-0.17,12.07,0.04c8.55,0.43,13.55,6.05,13.5,14.92c-0.05,8.54-5.09,14-13.48,14.48
		C342.61,354.7,340.35,354.6,338.1,354.6z"/>
</g>
<g id="Layer_3">
</g>
</svg>
