<svg width="50" height="50" viewBox="0 0 50 50" fill="none" xmlns="http://www.w3.org/2000/svg">
<path opacity="0.5" d="M50 25C50 11.1929 38.8071 0 25 0C11.1929 0 0 11.1929 0 25C0 38.8071 11.1929 50 25 50C38.8071 50 50 38.8071 50 25Z" fill="#E0E0E0"/>
<path d="M21.2662 17.1875H23.7638C25.1424 17.1875 26.8332 18.0618 27.5387 19.1406L30.6306 23.8631H36.2512C36.9406 23.8631 37.5 24.3725 37.5 25C37.5 25.6275 36.9406 26.1369 36.2512 26.1369H30.512L27.4201 30.8594C26.7145 31.9382 25.0237 32.8125 23.6451 32.8125H21.1476L25.517 26.1369H16.7895L14.9975 28.9256H12.5L15.0225 25V24.9625L12.525 21.0744H15.0225L16.8132 23.8631H25.6356L21.2662 17.1875Z" fill="#818181"/>
</svg>
