<svg width="39" height="39" viewBox="0 0 39 39" fill="none" xmlns="http://www.w3.org/2000/svg">
<path fill-rule="evenodd" clip-rule="evenodd" d="M13 15.6C13 19.1896 15.9102 22.1 19.5 22.1C23.0898 22.1 26 19.1896 26 15.6C26 12.0104 23.0898 9.09998 19.5 9.09998C15.9102 9.09998 13 12.0104 13 15.6ZM16.25 15.6C16.25 17.3956 17.705 18.85 19.5 18.85C21.295 18.85 22.75 17.3956 22.75 15.6C22.75 13.8044 21.295 12.35 19.5 12.35C17.705 12.35 16.25 13.8044 16.25 15.6Z" fill="white"/>
<path fill-rule="evenodd" clip-rule="evenodd" d="M19.5 0C30.2695 0 39 8.73068 39 19.5C39 30.2693 30.2695 39 19.5 39C8.7305 39 0 30.2693 0 19.5C0 8.73068 8.7305 0 19.5 0ZM35.4545 19.5C35.4545 23.205 34.1915 26.6157 32.0722 29.3244C29.1571 25.5078 24.5588 23.0455 19.3857 23.0455C14.2797 23.0455 9.73369 25.444 6.81347 29.1756C4.76332 26.4916 3.54545 23.1376 3.54545 19.5C3.54545 10.6878 10.6885 3.54545 19.5 3.54545C28.3115 3.54545 35.4545 10.6878 35.4545 19.5ZM19.5 35.4545C23.3117 35.4545 26.8113 34.1179 29.5554 31.8878C27.3115 28.6845 23.5931 26.5909 19.3857 26.5909C15.2306 26.5909 11.5523 28.6331 9.30008 31.7691C12.0654 34.0701 15.6211 35.4545 19.5 35.4545Z" fill="white"/>
</svg>
